<?xml version="1.0" standalone="no"?><!DOCTYPE svg PUBLIC "-//W3C//DTD SVG 1.1//EN" "http://www.w3.org/Graphics/SVG/1.1/DTD/svg11.dtd"><svg t="1513669986281" class="icon" style="" viewBox="0 0 1024 1024" version="1.1" xmlns="http://www.w3.org/2000/svg" p-id="2403" xmlns:xlink="http://www.w3.org/1999/xlink" width="200" height="200"><defs><style type="text/css"></style></defs><path d="M511.9999999999999 1.1368683772161603e-13C794.7519999999997 0 1023.9999999999998 229.11999999999978 1024 511.9999999999999S794.7520000000001 1023.9999999999998 512.0000000000001 1024s-512.0000000000001-229.11999999999992-512.0000000000001-511.9999999999998 229.24799999999982-512 511.9999999999998-512.0000000000001z m3.410605131648481e-13 928C741.376 928 928 741.4399999999998 928 511.9999999999998s-186.62400000000014-416-416.0000000000001-415.99999999999983-416 186.56000000000014-415.99999999999983 416.0000000000001S282.6240000000003 928.0000000000001 512.0000000000002 928z m79.99999999999977-640c26.496000000000002-1.0658141036401503e-14 48 21.439999999999994 48.00000000000002 47.999999999999986 4.440892098500626e-15 14.079999999999998-6.08 26.56-15.647999999999987 35.20000000000001l0.09600000000000011 0.3199999999999999L471.03999999999996 512 624.4480000000001 652.48l-0.09599999999999988 0.32000000000000006C633.9200000000001 661.44 640 673.92 640.0000000000002 688c7.105427357601002e-15 26.56-21.503999999999984 48.00000000000001-47.999999999999986 48.00000000000002-12.512 5.329070518200751e-15-23.776000000000003-4.799999999999994-32.352000000000004-12.799999999999992l-0.09599999999999988 0.32000000000000006-192.00000000000006-175.99999999999991C357.664 538.24 352 525.44 352 512c-3.552713678800501e-15-13.439999999999998 5.663999999999991-26.240000000000002 15.551999999999992-35.52000000000001l191.9999999999999-176.00000000000003 0.09600000000000011 0.3199999999999999c8.575999999999997-8.000000000000002 19.839999999999996-12.800000000000004 32.35199999999999-12.800000000000013z" p-id="2404" fill="#ffffff"></path></svg>