<?xml version="1.0" standalone="no"?><!DOCTYPE svg PUBLIC "-//W3C//DTD SVG 1.1//EN" "http://www.w3.org/Graphics/SVG/1.1/DTD/svg11.dtd"><svg t="1513221557641" class="icon" style="" viewBox="0 0 1024 1024" version="1.1" xmlns="http://www.w3.org/2000/svg" p-id="14393" xmlns:xlink="http://www.w3.org/1999/xlink" width="200" height="200"><defs><style type="text/css"></style></defs><path d="M911.981714 217.161143c21.138286 21.138286 38.838857 63.414857 38.838857 93.696v658.285714a54.857143 54.857143 0 0 1-54.857142 54.857143h-768a54.857143 54.857143 0 0 1-54.857143-54.857143v-914.285714a54.857143 54.857143 0 0 1 54.857143-54.857143h512c30.281143 0 72.557714 17.700571 93.696 38.838857zM658.285714 77.714286V292.571429h214.857143c-3.437714-9.728-8.557714-19.419429-12.580571-23.442286L681.691429 90.258286c-3.986286-3.986286-13.714286-9.142857-23.442286-12.580572zM877.714286 950.857143V365.714286h-237.714286A54.857143 54.857143 0 0 1 585.142857 310.857143V73.142857H146.285714v877.714286h731.428572z" fill="" p-id="14394"></path></svg>