<?xml version="1.0" standalone="no"?><!DOCTYPE svg PUBLIC "-//W3C//DTD SVG 1.1//EN" "http://www.w3.org/Graphics/SVG/1.1/DTD/svg11.dtd"><svg t="1513220705720" class="icon" style="" viewBox="0 0 1097 1024" version="1.1" xmlns="http://www.w3.org/2000/svg" p-id="14149" xmlns:xlink="http://www.w3.org/1999/xlink" width="214.2578125" height="200"><defs><style type="text/css"></style></defs><path d="M1017.709714 532.004571c0-16.018286-17.700571-20.004571-30.281143-20.004571H365.714286c-30.281143 0-70.290286 18.870857-89.709715 42.276571l-168.009142 207.433143c-5.156571 6.838857-10.276571 14.299429-10.276572 22.857143 0 16.018286 17.700571 20.004571 30.281143 20.004572h621.714286c30.281143 0 70.290286-18.870857 89.709714-42.861715l168.009143-207.433143c5.156571-6.290286 10.276571-13.714286 10.276571-22.272zM365.714286 438.857143h438.857143V347.428571A54.857143 54.857143 0 0 0 749.714286 292.571429h-329.142857A54.857143 54.857143 0 0 1 365.714286 237.714286v-36.571429A54.857143 54.857143 0 0 0 310.857143 146.285714h-182.857143A54.857143 54.857143 0 0 0 73.142857 201.142857v487.424l146.285714-180.004571C252.562286 468.004571 313.709714 438.857143 365.714286 438.857143z m725.138285 93.147428c0 25.161143-10.861714 49.152-26.294857 68.571429L896 808.009143c-32.585143 40.009143-94.866286 69.705143-146.285714 69.705143h-621.714286A128.512 128.512 0 0 1 0 749.714286v-548.571429C0 130.852571 57.709714 73.142857 128 73.142857h182.857143C381.147429 73.142857 438.857143 130.852571 438.857143 201.142857V219.428571h310.857143C820.004571 219.428571 877.714286 277.138286 877.714286 347.428571V438.857143h109.714285c38.838857 0 77.714286 17.700571 94.866286 54.272 5.705143 11.995429 8.557714 25.161143 8.557714 38.838857z" fill="" p-id="14150"></path></svg>