<?xml version="1.0" standalone="no"?><!DOCTYPE svg PUBLIC "-//W3C//DTD SVG 1.1//EN" "http://www.w3.org/Graphics/SVG/1.1/DTD/svg11.dtd"><svg t="1513220696655" class="icon" style="" viewBox="0 0 1024 1024" version="1.1" xmlns="http://www.w3.org/2000/svg" p-id="14035" xmlns:xlink="http://www.w3.org/1999/xlink" width="200" height="200"><defs><style type="text/css"></style></defs><path d="M914.285714 749.714286v-402.285715A54.857143 54.857143 0 0 0 859.428571 292.571429h-402.285714A54.857143 54.857143 0 0 1 402.285714 237.714286v-36.571429A54.857143 54.857143 0 0 0 347.428571 146.285714h-182.857142A54.857143 54.857143 0 0 0 109.714286 201.142857v548.571429A54.857143 54.857143 0 0 0 164.571429 804.571429h694.857142a54.857143 54.857143 0 0 0 54.857143-54.857143z m73.142857-402.285715v402.285715c0 70.290286-57.709714 128-128 128h-694.857142A128.512 128.512 0 0 1 36.571429 749.714286v-548.571429C36.571429 130.852571 94.281143 73.142857 164.571429 73.142857h182.857142C417.718857 73.142857 475.428571 130.852571 475.428571 201.142857V219.428571h384C929.718857 219.428571 987.428571 277.138286 987.428571 347.428571z" fill="" p-id="14036"></path></svg>