<?xml version="1.0" standalone="no"?><!DOCTYPE svg PUBLIC "-//W3C//DTD SVG 1.1//EN" "http://www.w3.org/Graphics/SVG/1.1/DTD/svg11.dtd"><svg t="1513039065637" class="icon" style="" viewBox="0 0 1024 1024" version="1.1" xmlns="http://www.w3.org/2000/svg" p-id="6723" xmlns:xlink="http://www.w3.org/1999/xlink" width="200" height="200"><defs><style type="text/css"></style></defs><path d="M238.659584 153.393152c-32.012288 22.76352-60.469248 48.551936-85.364736 77.357056-24.897536 28.813312-46.237696 59.932672-64.02048 93.366272-17.784832 33.4336-31.301632 68.825088-40.548352 106.170368a471.037952 471.037952 0 0 0-13.871104 113.635328c0 66.156544 12.62592 128.217088 37.87776 186.198016 25.253888 57.972736 59.398144 108.480512 102.434816 151.51104 43.040768 43.042816 93.546496 77.185024 151.519232 102.438912C384.657408 1009.324032 446.728192 1021.952 512.874496 1021.952c65.452032 0 127.16032-12.627968 185.133056-37.881856 57.97888-25.253888 108.660736-59.398144 152.051712-102.438912 43.393024-43.034624 77.53728-93.540352 102.432768-151.51104 24.901632-57.980928 37.347328-120.041472 37.347328-186.202112 0-37.695488-4.446208-74.688512-13.338624-110.966784-8.896512-36.276224-21.520384-70.77888-37.87776-103.503872-16.361472-32.720896-36.640768-63.307776-60.823552-91.76064a518.037504 518.037504 0 0 0-81.094656-76.828672c-15.650816-11.384832-32.54272-15.650816-50.685952-12.808192-18.132992 2.852864-32.894976 11.739136-44.279808 26.6752-11.38688 14.944256-15.650816 31.660032-12.808192 50.153472 2.852864 18.49344 11.739136 33.435648 26.6752 44.816384 44.818432 32.720896 79.142912 72.9088 102.975488 120.569856 23.826432 47.663104 35.7376 98.87744 35.7376 153.649152 0 46.9504-8.890368 91.236352-26.677248 132.849664-17.780736 41.611264-42.141696 77.889536-73.084928 108.832768-30.947328 30.947328-67.2256 55.49056-108.838912 73.627648s-85.891072 27.205632-132.849664 27.205632c-46.944256 0-91.226112-9.066496-132.839424-27.205632-41.61536-18.139136-77.897728-42.68032-108.838912-73.627648-30.939136-30.941184-55.48032-67.217408-73.621504-108.832768-18.143232-41.613312-27.209728-85.897216-27.20768-132.849664 0-55.478272 12.8-107.945984 38.408192-157.384704 25.61024-49.43872 61.534208-90.159104 107.771904-122.171392 15.64672-10.672128 25.075712-25.255936 28.274688-43.749376 3.203072-18.49344-0.53248-35.569664-11.200512-51.22048-10.672128-14.94016-25.255936-24.008704-43.749376-27.20768-18.495488-3.198976-35.559424 0.530432-51.212288 11.20256l0.006144 0.01024z m274.223104 393.734144c18.495488 0 34.326528-6.582272 47.484928-19.740672 13.160448-13.162496 19.74272-28.991488 19.74272-47.489024V74.430464c0-18.495488-6.582272-34.502656-19.74272-48.01536C547.20512 12.900352 531.378176 6.144 512.882688 6.144c-19.204096 0-35.387392 6.7584-48.54784 20.273152s-19.738624 29.519872-19.738624 48.01536v405.469184c0 18.495488 6.580224 34.32448 19.738624 47.489024 13.162496 13.154304 29.343744 19.738624 48.54784 19.736576z" p-id="6724"></path></svg>